<?xml version="1.0" encoding="utf-8"?>
<!-- Generator: Adobe Illustrator 26.0.3, SVG Export Plug-In . SVG Version: 6.00 Build 0)  -->
<svg version="1.1" id="Ebene_1" xmlns="http://www.w3.org/2000/svg" xmlns:xlink="http://www.w3.org/1999/xlink" x="0px" y="0px"
	 viewBox="0 0 100 100" style="enable-background:new 0 0 100 100;" xml:space="preserve">
<style type="text/css">
	.st0{fill:#FFFFFF;}
</style>
<g>
	<g>
		<path class="st0" d="M29.1,27.6c-0.7,5.1-4.9,9.3-10,9.8c-2.6,0.3-5.2-0.3-7.5-1.6c-2.4-1.4-3.8-3.4-4.6-6c-0.4-1.3-0.5,3.8,0,2
			c0.1-0.4,0.2-0.8,0.3-1.2c0.2-0.6,0.4-1.2,0.7-1.8c0.5-1.1,1.2-2,2.1-2.9c1.5-1.5,3.4-2.6,5.3-3.4c4.5-1.8,9.5-2.2,14.3-1.9
			c5.4,0.3,10.4,1.6,15.4,3.5c4,1.5,8,3.2,11.9,0.5c1.7-1.2,3.4-3,3.9-5.1c0.5-1.8,0.4-3.9,0.3-5.7c-0.1-1,0-2.2-0.9-2.7
			c-1.6-1-4.3-0.3-5.9,0.3c-2.5,0.9-4.5,2.6-5.9,4.8c-1,1.7-1.7,3.6-2.1,5.5c-0.7,3-1.1,6.1-1.6,9.1c-0.9,6.4-1.6,12.8-2.6,19.2
			c-0.9,6.2-2,12.3-4,18.2c-0.9,2.8-2,5.5-3.4,8.2c-1.2,2.4-2.5,4.9-4.2,7c-1.4,1.8-3.3,3.4-5.6,4c-2.1,0.5-4.2,0.1-6.1-0.7
			c-4.4-1.8-8-5.6-10-9.8c-0.5-1-0.9-2-1.1-3c-0.2-0.7-0.2-2.6-0.2,0.1c0,2.6,0,1,0.2,0.3c0.5-1.9,1.6-3.6,3-5.1
			C14,66,17.9,63.8,21.8,62c6.6-3.1,13.8-5.5,21.1-6.8c11.7-2,23.4-0.7,34.3,4c4.2,1.8,8.5,3.8,12.2,6.6c1.8,1.4,3.6,3,4.8,5
			c0.5,0.8,0.9,1.7,1.3,2.7c0.2,0.5,0.2,0.9,0.4,1.4c0,0.1,0,0.2,0.1,0.3c-0.1-0.8-0.1-1.6,0-2.4c-0.1,0.2-0.1,0.5-0.1,0.8
			c-1,4.9-4.8,9.2-9,11.9c-2.1,1.3-4.4,2.4-6.8,2.8c-2.9,0.5-5.8,0-8.5-0.9c-3.1-1-6.1-2.4-9-3.8c-2.1-1.1-4.1-2.5-6.3-3.4
			c-4-1.8-8.4,0.4-10.6,4c-0.5,0.8-0.7,1.7-0.8,2.7c-0.1,1.2-0.1,2.3-0.1,3.5c0,0.8,0,1.9,0.3,2.7c0.7,2,4,2,5.7,1.7
			c3.3-0.6,5.3-3.2,6.7-6c2-4.3,3-9,4-13.6c1-4.3,1.9-8.7,2.9-13c1-4.3,2-8.6,2.6-13c0.8-5.7,1.6-11.3,3.2-16.9
			c0.8-2.7,1.5-5.4,2.5-8c0.7-1.9,1.4-3.9,2.7-5.4c2.2-2.7,5.6-2.9,8.7-1.9c4,1.2,7.8,3.9,10.2,7.4c1.2,1.7,2.3,3.8,2.7,5.9
			c0,0.2,0,0.4,0.1,0.5c0-0.4,0-0.8,0-1.2c0.1-1.1,0.1-1.4,0-0.9c-0.2,0.5-0.2,1.1-0.4,1.6c-0.4,1.2-0.9,2.3-1.6,3.3
			c-4.3,6.6-13.1,9.7-20.7,8c-2.1-0.5-4.2-1.4-5.8-2.8c-0.9-0.8-1.7-1.8-2.3-3c-0.3-0.6-0.6-1.2-0.8-1.9c-0.1-0.4-0.2-0.8-0.3-1.2
			c-0.4-1.4-0.4,3.2,0,1.8c0.7-2.5,1.7-4.7,3.6-6.5c1.7-1.7,3.9-2.9,6.3-2.9c5.1-0.2,9.1,4.2,9.8,9c0.2,1.3,0.5-1.1,0.5-1.2
			c0.1-1.5,0.1-3.1-0.1-4.6c-0.7-5-4.5-10-10-9.9c-5.1,0.1-9.1,4.9-10.2,9.6c-0.8,3.6-0.8,7.9,0,11.5c0.6,2.7,2,5.1,4.2,6.8
			c3.2,2.4,7.5,2.9,11.3,2.6c4-0.4,7.8-2,10.9-4.5c2-1.6,3.7-3.6,4.7-5.9c1.3-2.8,1.5-5.8,1.5-8.9c0-2.9-0.2-5.9-1.4-8.6
			c-0.9-2-2.2-3.9-3.7-5.4c-2.9-3-7-5.6-11.3-5.9c-3.7-0.3-6.1,1.9-7.6,5.1c-1.1,2.2-1.8,4.6-2.5,6.9c-1,3.3-1.9,6.6-2.7,9.9
			c-1.2,5.3-1.5,10.7-2.6,16c-0.8,4.4-1.9,8.8-2.9,13.2c-1.1,5-2.1,9.9-3.4,14.8c-1,3.6-2.1,7.8-4.9,10.5c-1.4,1.3-3.2,2-5,2.1
			c-1.2,0.1-2.5-0.1-3.5-0.6c-0.4-0.2-0.5-0.5-0.9-0.8c0,1.8,0,3.5,0,5.3c0-0.2,0.1-0.3,0.2-0.4c0.2-0.3,0.3-0.6,0.5-0.9
			c1.3-2,3.6-3.7,6-4.2c2-0.4,3.7,0.1,5.5,1.1c5.4,2.9,10.9,6.3,17,7.5c5.5,1.1,10.7-0.9,14.8-4.4c4.1-3.4,6.8-8,7.3-13.3
			c0.3-3.3,0.4-7.1-0.7-10.3c-0.7-2-1.9-3.9-3.4-5.4c-3.3-3.5-7.8-5.8-12.2-7.8c-5.8-2.7-11.8-4.8-18.2-5.7
			c-9.6-1.3-19.5-0.3-28.7,2.8c-3.7,1.2-7.5,2.6-11.1,4.2c-4,1.9-8.2,4.2-11.1,7.5c-3.7,4.2-4,9.5-3.5,14.9c0.5,5,3,9.5,6.8,12.8
			c3.3,3,8.3,5.6,12.7,3.5c2.2-1,3.8-3,5.2-5c1.6-2.4,2.9-5,4.1-7.6c5.4-11.9,6.7-25.2,8.3-38.1c0.5-3.5,0.9-6.9,1.5-10.4
			c0.4-2.4,0.7-4.8,1.5-7.1c1.7-4.8,6.4-8.8,11.8-8.1c0.4,0.1,0.9,0.1,1.2,0.4c0.1,0.1,0.2,0.1,0.3,0.2c0,0,0.1,0.1,0.1,0.1
			c0.8,1.7,0.8,0,0-5c-0.5,1.2-1.1,2.2-2,3.2c-1.6,1.6-3.7,2.9-6,2.9c-2.2,0.1-4.3-0.7-6.3-1.5c-2.8-1.1-5.5-2.1-8.4-2.8
			c-5-1.2-10.3-1.6-15.4-1c-4.5,0.5-9.5,1.9-12.7,5.3c-1.7,1.8-2.8,4.1-3.2,6.6c-0.4,2-0.4,4.2-0.3,6.2C6.5,34,6.7,36,7.4,37.7
			c2,4.9,7.9,7.3,12.8,6.3c5.1-1.1,8.5-5.6,9.3-10.6c0.2-1.5,0.2-3.1,0.1-4.6C29.6,28.5,29.3,26.3,29.1,27.6L29.1,27.6z"/>
	</g>
</g>
</svg>
