<?xml version="1.0" encoding="utf-8"?>
<!-- Generator: Adobe Illustrator 26.0.3, SVG Export Plug-In . SVG Version: 6.00 Build 0)  -->
<svg version="1.1" id="Ebene_1" xmlns="http://www.w3.org/2000/svg" xmlns:xlink="http://www.w3.org/1999/xlink" x="0px" y="0px"
	 viewBox="0 0 100 100" style="enable-background:new 0 0 100 100;" xml:space="preserve">
<g>
	<g>
		<path d="M29.15,27.57c-0.74,5.1-4.85,9.27-10.02,9.84c-2.58,0.28-5.24-0.31-7.47-1.64c-2.37-1.42-3.79-3.41-4.56-6.02
			c-0.39-1.34-0.46,3.84,0.04,2.05c0.11-0.4,0.18-0.8,0.31-1.2c0.2-0.61,0.44-1.21,0.73-1.79c0.53-1.07,1.21-2.04,2.06-2.89
			c1.5-1.5,3.37-2.58,5.33-3.36c4.5-1.78,9.53-2.16,14.33-1.91c5.37,0.28,10.43,1.6,15.44,3.53c3.97,1.53,8.03,3.16,11.91,0.47
			c1.71-1.19,3.38-3.02,3.93-5.07c0.48-1.8,0.39-3.89,0.28-5.72c-0.06-0.96-0.03-2.16-0.93-2.74c-1.61-1.03-4.32-0.28-5.94,0.3
			c-2.49,0.9-4.53,2.56-5.91,4.82c-1.04,1.7-1.65,3.6-2.06,5.54c-0.65,3.01-1.11,6.07-1.56,9.11c-0.94,6.39-1.63,12.82-2.58,19.21
			c-0.91,6.15-2.05,12.3-4.01,18.21c-0.93,2.8-2.04,5.54-3.36,8.18c-1.22,2.42-2.46,4.9-4.16,7.03c-1.44,1.81-3.27,3.4-5.56,3.96
			c-2.06,0.5-4.22,0.09-6.15-0.72c-4.35-1.82-7.99-5.6-10.01-9.82c-0.46-0.97-0.86-1.99-1.12-3.03c-0.18-0.74-0.23-2.6-0.23,0.08
			c0,2.63,0.02,1,0.23,0.26c0.54-1.9,1.63-3.61,2.96-5.07c2.91-3.19,6.81-5.39,10.69-7.19c6.64-3.09,13.84-5.53,21.07-6.75
			c11.68-1.97,23.43-0.65,34.32,4.05c4.22,1.82,8.48,3.76,12.17,6.55c1.84,1.39,3.56,3.02,4.78,5c0.52,0.84,0.95,1.74,1.27,2.68
			c0.16,0.47,0.25,0.93,0.36,1.41c0.02,0.1,0.03,0.2,0.05,0.3c-0.08-0.81-0.09-1.62-0.01-2.44c-0.06,0.25-0.08,0.52-0.13,0.78
			c-1.04,4.95-4.82,9.23-8.96,11.92c-2.07,1.35-4.39,2.39-6.83,2.84c-2.87,0.53-5.78,0.02-8.53-0.87c-3.08-0.99-6.08-2.38-8.96-3.85
			c-2.12-1.09-4.12-2.46-6.3-3.43c-3.95-1.76-8.44,0.45-10.59,4.02c-0.51,0.85-0.72,1.72-0.81,2.7c-0.11,1.16-0.12,2.33-0.09,3.49
			c0.02,0.83-0.01,1.9,0.29,2.72c0.74,2.01,4.01,1.97,5.7,1.67c3.29-0.59,5.34-3.16,6.69-6.04c2-4.27,2.96-9.03,3.99-13.6
			c0.97-4.33,1.89-8.66,2.85-12.99c0.96-4.32,2-8.6,2.6-12.99c0.78-5.71,1.59-11.34,3.19-16.9c0.77-2.68,1.52-5.37,2.46-7.99
			c0.67-1.88,1.43-3.88,2.7-5.45c2.18-2.7,5.59-2.86,8.72-1.93c4.04,1.2,7.77,3.94,10.23,7.35c1.25,1.74,2.27,3.78,2.65,5.9
			c0.03,0.17,0.03,0.37,0.08,0.54c-0.01-0.39-0.03-0.77-0.04-1.16c0.07-1.12,0.07-1.43,0.01-0.91c-0.17,0.53-0.23,1.11-0.4,1.65
			c-0.39,1.18-0.94,2.3-1.62,3.33c-4.31,6.59-13.12,9.67-20.71,8.03c-2.14-0.46-4.21-1.37-5.85-2.85c-0.93-0.84-1.69-1.84-2.26-2.96
			c-0.31-0.59-0.56-1.22-0.76-1.86c-0.13-0.41-0.18-0.82-0.3-1.23c-0.38-1.36-0.42,3.23,0,1.8c0.74-2.49,1.69-4.66,3.58-6.53
			c1.69-1.67,3.87-2.85,6.28-2.94c5.09-0.2,9.13,4.18,9.82,8.97c0.19,1.33,0.46-1.06,0.47-1.22c0.09-1.54,0.1-3.12-0.12-4.65
			c-0.73-5.03-4.48-9.99-9.99-9.9c-5.12,0.08-9.12,4.93-10.21,9.6c-0.84,3.61-0.83,7.93-0.01,11.54c0.61,2.67,2.02,5.12,4.22,6.78
			c3.19,2.4,7.46,2.92,11.33,2.57c3.98-0.36,7.82-1.96,10.93-4.47c1.96-1.59,3.66-3.59,4.74-5.88c1.3-2.77,1.52-5.84,1.52-8.86
			c0.01-2.93-0.22-5.92-1.38-8.65c-0.86-2.01-2.15-3.85-3.66-5.42c-2.9-3.02-7-5.57-11.27-5.87c-3.71-0.26-6.08,1.88-7.63,5.06
			c-1.07,2.2-1.79,4.57-2.5,6.91c-0.99,3.27-1.95,6.55-2.68,9.89c-1.16,5.3-1.54,10.72-2.56,16.05c-0.85,4.43-1.94,8.81-2.91,13.21
			c-1.08,4.96-2.07,9.94-3.4,14.84c-0.97,3.57-2.09,7.82-4.86,10.46c-1.38,1.31-3.15,2.01-5.05,2.11c-1.15,0.06-2.45-0.05-3.48-0.61
			c-0.42-0.23-0.55-0.48-0.87-0.79c0,1.76,0,3.52,0,5.28c0.04-0.15,0.09-0.29,0.15-0.43c0.16-0.31,0.29-0.62,0.48-0.91
			c1.29-2.04,3.6-3.66,5.95-4.18c1.97-0.44,3.73,0.14,5.46,1.06c5.44,2.89,10.87,6.27,17,7.49c5.46,1.09,10.66-0.91,14.84-4.42
			c4.05-3.4,6.84-8,7.31-13.32c0.3-3.35,0.36-7.08-0.72-10.31c-0.68-2.04-1.93-3.86-3.4-5.41c-3.34-3.51-7.81-5.81-12.17-7.8
			c-5.84-2.66-11.8-4.78-18.19-5.67c-9.58-1.32-19.5-0.26-28.68,2.77c-3.74,1.23-7.47,2.58-11.06,4.22
			c-4.05,1.86-8.17,4.15-11.15,7.53c-3.67,4.16-4,9.5-3.48,14.85c0.48,5,3.05,9.49,6.76,12.82c3.31,2.98,8.32,5.56,12.74,3.47
			c2.21-1.04,3.84-2.99,5.17-4.98c1.6-2.38,2.92-5,4.11-7.61c5.44-11.91,6.67-25.24,8.33-38.07c0.45-3.47,0.93-6.93,1.5-10.39
			c0.39-2.36,0.7-4.79,1.49-7.06c1.66-4.75,6.43-8.82,11.75-8.1c0.42,0.06,0.88,0.15,1.24,0.38c0.1,0.07,0.18,0.14,0.28,0.21
			c0.04,0.04,0.07,0.09,0.11,0.13c0.78,1.71,0.79,0.04,0.02-5.02c-0.51,1.22-1.12,2.24-2.05,3.2c-1.58,1.63-3.66,2.85-5.97,2.93
			c-2.19,0.08-4.31-0.74-6.32-1.51c-2.78-1.06-5.54-2.14-8.44-2.84c-4.99-1.21-10.28-1.57-15.39-0.98
			c-4.53,0.52-9.48,1.86-12.72,5.27c-1.73,1.82-2.78,4.14-3.24,6.59c-0.38,2.04-0.4,4.17-0.34,6.24c0.05,1.87,0.19,3.82,0.91,5.57
			c2,4.86,7.87,7.34,12.85,6.3c5.14-1.08,8.55-5.56,9.28-10.6c0.22-1.53,0.22-3.11,0.12-4.65C29.6,28.46,29.34,26.3,29.15,27.57
			L29.15,27.57z"/>
	</g>
</g>
</svg>
