<?xml version="1.0" encoding="utf-8"?>
<!-- Generator: Adobe Illustrator 26.0.3, SVG Export Plug-In . SVG Version: 6.00 Build 0)  -->
<svg version="1.1" id="Ebene_2_00000078016760750369596750000017480765758187245730_"
	 xmlns="http://www.w3.org/2000/svg" xmlns:xlink="http://www.w3.org/1999/xlink" x="0px" y="0px" viewBox="0 0 1000 1000"
	 style="enable-background:new 0 0 1000 1000;" xml:space="preserve">
<style type="text/css">
	.st0{fill:url(#SVGID_1_);}
</style>
<linearGradient id="SVGID_1_" gradientUnits="userSpaceOnUse" x1="1157.3285" y1="1237.1172" x2="-149.3382" y2="-73.1052" gradientTransform="matrix(1 0 0 -1 0 1078)">
	<stop  offset="0" style="stop-color:#6C4675"/>
	<stop  offset="1" style="stop-color:#D47479"/>
</linearGradient>
<rect x="-150" y="-150" class="st0" width="1300" height="1300"/>
<g>
	<g>
		<path d="M270.52,251.98c-0.35,2.63-0.76,5.24-1.27,7.84c-0.25,1.29-0.52,2.58-0.81,3.86c0.57-2.49-0.42,1.55-0.45,1.65
			c-1.36,5-3.02,9.91-4.99,14.69c-3.87,9.43-8.92,18.3-14.94,26.52c0.3-0.4,0.6-0.81,0.9-1.21c-16.78,22.4-40.92,38.71-68.4,44.62
			c-28.41,6.11-58.81,1.14-84.16-12.93c-13.59-7.54-25.61-17.71-34.94-30.16c0.3,0.4,0.6,0.81,0.9,1.21
			c-5.66-7.76-10.2-16.24-13.19-25.39c-0.47-1.43-0.88-2.87-1.29-4.32c-1.23-4.3,0.27,2-0.57-2.38c-0.23-1.22-0.47-2.43-0.67-3.66
			c-0.43-2.65-0.33-2.24-0.01,0.18c-0.27-2.78-0.22-1.96,0.15,2.47c0.07,1.73,0.13,3.45,0.2,5.18c-0.28-8.52-0.28,19.23,0,10.72
			c-0.07,1.73-0.13,3.46-0.2,5.19c-0.35,4.2-0.43,5.27-0.25,3.23c0.07-0.73,0.14-1.46,0.22-2.18c-0.36,2.65-0.44,3.22-0.22,1.69
			c2.97-17.72,10.43-36.91,22.18-52.87c-0.3,0.4-0.6,0.81-0.9,1.21c23.99-31.95,63.04-48.12,100.96-56.54
			c43.4-9.63,88.75-10.47,132.9-6.55c21.68,1.93,43.28,5.11,64.53,9.85c25.98,5.79,51.19,14.14,76.39,22.6
			c19.18,6.44,38.8,13.36,59.08,15.17c18.75,1.68,36.78-2.48,52.6-12.78c18.23-11.87,36.13-30.86,40.4-52.85
			c1.49-7.67,1.77-15.76,1.98-23.53c0.31-11.76,0.28-23.61-0.88-35.33c-0.56-5.59-0.94-11.8-4.62-16.33
			c-4.43-5.45-12.07-7.07-18.72-7.75c-21.95-2.25-45.69,4.59-64.73,15.21c-20.76,11.57-36.34,30.21-46.41,51.54
			c-7.8,16.53-12.06,34.28-15.52,52.14c-5.74,29.65-10.55,59.47-14.88,89.36c-4.5,31.13-8.49,62.33-12.48,93.52
			c-0.97,7.57-1.93,15.14-2.9,22.71c-0.21,1.62-0.42,3.24-0.62,4.85c-0.14,1.08-0.28,2.16-0.42,3.23c-0.3,2.35,0.14-1.1,0.17-1.28
			c-0.47,3.77-0.98,7.53-1.47,11.29c-1.93,14.7-3.92,29.4-6.03,44.08c-8.18,56.99-17.98,113.44-33.69,167.9
			c-14.94,51.78-35.82,101.53-62.64,148.29c-5.95,10.38-12.35,20.51-19.5,30.11c0.3-0.4,0.6-0.81,0.9-1.21
			c-19.84,26.33-46.74,47.79-81.25,46.9c-30.24-0.78-58.92-15.82-82.19-34.22c-15.09-11.93-28.5-25.91-40.06-41.27
			c0.3,0.4,0.6,0.81,0.9,1.21c-14.75-19.83-25.84-41.65-32.47-65.47c-0.69-2.49-0.13-0.45-0.01,0.06c-0.18-0.75-0.34-1.5-0.5-2.25
			c-0.28-1.31-0.55-2.62-0.79-3.93c-0.24-1.31-0.47-2.62-0.67-3.93c-0.11-0.72-0.16-1.53-0.33-2.25c0.31,1.34,0.53,4.73,0.21,1.39
			c-0.07-0.75-0.13-1.5-0.22-2.24c-0.27-2.29,0.19,4.27,0.31,4.08c0.11-0.16-0.08-1.87-0.13-2.24c-0.06-0.5,0.34,9.12,0.23,4.77
			c0.09,3.41,0.1,6.81,0.05,10.22c-0.16,10.99,0.27-4.55-0.15,5.25c-0.24,5.6-0.14,3.08-0.07,1.85c0.29-4.7-0.72,7.14-0.21,2.8
			c0.06-0.49,0.12-0.99,0.16-1.48c0.16-2.48-0.74,4.82-0.32,2.38c0.19-1.13,0.33-2.27,0.53-3.39c0.22-1.28,0.47-2.56,0.73-3.83
			c0.1-0.47,0.23-0.95,0.31-1.43c0.29-1.67-0.7,2.59-0.02,0.13c1.3-4.66,2.71-9.25,4.51-13.75c4.25-10.6,10.08-20.46,16.87-29.62
			c-0.3,0.4-0.6,0.81-0.9,1.21c16.34-21.75,37.8-39.15,60.51-53.87c24.23-15.7,50.24-28.57,76.74-39.95
			c24.09-10.34,48.7-19.4,73.45-28c18-6.26,36.04-12.29,54.42-17.35c58.01-15.95,118.23-24.36,178.41-24.2
			c39.32,0.1,78.65,3.93,117.19,11.78c40.94,8.34,80.19,21.64,118.51,38.16c54.2,23.37,111.87,48.77,153.2,92.29
			c4.85,5.1,9.39,10.48,13.61,16.11c-0.3-0.4-0.6-0.81-0.9-1.21c6.13,8.31,11.5,17.18,15.69,26.63c2.05,4.63,3.83,9.38,5.29,14.23
			c0.37,1.22,0.72,2.45,1.05,3.68c0.19,0.71,0.36,1.42,0.55,2.13c-0.04-0.16-0.44-2.27-0.18-0.74c0.47,2.74,1.06,5.46,1.53,8.2
			c0.58,3.44-0.5-5.13-0.04-0.28c0.11,1.16,0.49,5.56,0.09,0.54c-0.61-7.71,0.15,5.22-0.23-3.96c-0.23-5.5-0.11-2.88-0.08-1.67
			c0.01,0.64-0.07-10.24-0.09-5.45c0,0.34,0.19-9.86,0.05-5.45c-0.01,0.38,0.49-8.99,0.16-4.53c-0.05,0.64,0.68-6.66,0.3-3.89
			c-0.18,1.35-0.45,2.83-0.44,4.18c0,0.16,0.7-4.53,0.29-2.34c-0.15,0.79-0.24,1.59-0.37,2.38c-0.23,1.39-0.47,2.78-0.74,4.16
			c-0.27,1.39-0.57,2.77-0.87,4.15c-0.46,2.07,0.5-1.94-0.04,0.11c-0.15,0.59-0.3,1.18-0.46,1.77c-0.79,2.95-1.67,5.88-2.63,8.78
			c-1.82,5.48-3.95,10.87-6.34,16.13c-5.7,12.56-12.89,24.37-21.07,35.47c0.3-0.4,0.6-0.81,0.9-1.21
			c-29.85,40-74.04,72.84-123.15,84.19c-27.51,6.35-55.23,3.3-82.16-4.38c-31.76-9.06-62.23-23.01-92.04-37.07
			c-23.44-11.06-45.56-25.21-69.48-35.19c-19.27-8.05-38.67-8.84-58.24-0.99c-20.43,8.19-41.44,24.46-50.76,44.94
			c-2.61,5.74-3.61,12.02-4.23,18.25c-1.17,11.61-1.21,23.37-0.93,35.03c0.2,8.18,0.42,16.74,2.32,24.74
			c2.22,9.34,10.71,13.66,19.39,15.95c20.93,5.52,46.34,2.18,64.72-9.42c11.12-7.02,19.71-17.33,26.64-28.37
			c8.97-14.3,15.29-30.2,20.72-46.13c7.47-21.91,13.26-44.38,18.69-66.86c11.41-47.28,21.22-94.93,31.65-142.43
			c9.49-43.22,20.57-86.3,28.31-129.88c9.24-52.03,13.39-104.72,24.8-156.41c6.73-30.47,16.15-61.9,25.4-92.45
			c7.05-23.29,14.32-46.83,24.87-68.82c3.81-7.93,8.12-15.62,13.32-22.72c-0.3,0.4-0.6,0.81-0.9,1.21
			c7.24-9.73,16.28-18.05,27.52-22.88c11.77-5.05,24.89-6.1,37.54-4.99c31.42,2.75,61.58,17.64,86.52,36.34
			c15.97,11.97,30.26,26.13,42.19,42.14c-0.3-0.4-0.6-0.81-0.9-1.21c12.75,17.32,21.93,36.29,27.55,57.03
			c0.53,1.94-0.4-2.17-0.05-0.19c0.1,0.55,0.24,1.09,0.35,1.63c0.27,1.27,0.51,2.55,0.74,3.82c0.23,1.28,0.42,2.57,0.64,3.85
			c0.23,1.35,0.18,3.67-0.23-1.99c0.05,0.74,0.18,1.49,0.26,2.23c0.04,0.37,0.07,2.11,0.22,2.24c0.12,0.11-0.38-6.33-0.31-4.07
			c0.02,0.56,0.07,1.13,0.11,1.69c0.31,4.37-0.22-5.21-0.2-4.73c0.05,1.39,0.07,4.1-0.02-2.25c-0.15-11.02-0.15,5.39,0-5.62
			c0.08-6.33,0.05-3.63,0.01-2.23c0.28-6.04,0.35-7.76,0.21-5.18c-0.02,0.43-0.05,0.86-0.08,1.29c-0.12,2.75,0.42-4.09,0.29-3.66
			c-0.21,0.66-0.19,1.81-0.25,2.55c-0.33,3.65,0.71-4.65-0.06,0.37c-0.48,3.12-1.07,6.22-1.79,9.3c0.54-2.31-0.39,1.38-0.57,2.04
			c-0.39,1.4-0.8,2.8-1.23,4.19c-0.86,2.77-1.82,5.51-2.85,8.21c-4.89,12.74-11.7,24.63-19.81,35.58c0.3-0.4,0.6-0.81,0.9-1.21
			c-29.87,39.71-77,67.42-125.88,75.73c-30.37,5.16-63.08,3.82-92.48-5.52c-24.32-7.73-46.7-21.93-62.08-42.54
			c0.3,0.4,0.6,0.81,0.9,1.21c-7.37-9.95-13.12-21.26-17.45-32.82c-1.7-4.54-3.11-9.16-4.36-13.84c-0.55-2.05,0.42,1.95-0.05-0.15
			c-0.14-0.61-0.27-1.21-0.4-1.82c-0.26-1.23-0.5-2.47-0.72-3.72c-0.22-1.24-0.27-2.6-0.62-3.8c-0.02-0.08,0.49,4.37,0.26,2.09
			c-0.09-0.87-0.17-1.75-0.28-2.62c-0.34-2.82,0.3,4.06,0.26,3.56c-0.09-1.17-0.19-3.96,0.04,1.36c0.13,3,0.2,6,0.19,9
			c0-1.09-0.18,9.2-0.08,5.57c0.09-3.3-0.24,5.41-0.19,4.62c0.02-0.39-0.61,6.2-0.25,3.33c0.07-0.58,0.33-1.58,0.22-2.15
			c0.22,1.11-0.58,3.74-0.1,0.99c1.04-5.98,2.25-10.85,4.68-17.34c4.05-10.78,9.8-20.85,16.6-30.13c-0.3,0.4-0.6,0.81-0.9,1.21
			c15.03-20.09,35.69-36.57,60.09-43.47c24.83-7.02,51.6-2.87,73.62,10.38c11.82,7.11,21.99,16.59,30.29,27.58
			c-0.3-0.4-0.6-0.81-0.9-1.21c5.66,7.67,10.39,15.96,14.01,24.78c1.81,4.41,3.34,8.94,4.59,13.54c0.2,0.75,0.75,2.9,0.31,1.05
			c0.31,1.29,0.57,2.59,0.82,3.89c0.51,2.63,0.91,5.28,1.26,7.94c-0.1,1.59,0.32,2.93,1.26,4.03c0.45,1.01,0.9,0.81,1.36-0.61
			c2.01-2.26,1.92-13.58,2.03-15.63c0.85-15.48,0.77-31.13-1.22-46.52c-4.67-36.09-24.16-70.27-56.44-88.38
			c-32.69-18.34-71.86-15.12-102.26,6.27c-14.49,10.19-26.64,23.68-35.94,38.73c-11.13,18-16.59,38.08-18.38,59.09
			c-3.9,45.7-2.55,95.51,23.04,135.25c30.22,46.93,88.81,60.88,141.41,56.91c57.7-4.36,114.28-35.54,147.54-83.09
			c9.97-14.24,17.52-30.12,21.79-46.99c7.51-29.68,7.72-61.79,5.5-92.14c-1.45-19.74-4.72-39.18-12.27-57.57
			c-5.97-14.53-14.18-27.98-23.74-40.42c-18.6-24.21-42.92-44.25-70.05-58.22C832.12,75.8,805.64,67.17,779.82,70
			c-23.01,2.52-39.81,16.22-51.95,35.31c-17.39,27.34-26.37,60.12-35.56,90.87c-13.12,43.86-25.26,87.86-33.02,133.03
			c-6.1,35.55-9.66,71.47-15.42,107.07c-4.97,30.73-12.49,60.94-19.27,91.3c-6.06,27.16-12.03,54.34-17.94,81.53
			c-4.02,18.49-7.97,37-12.05,55.47c-2.24,10.16-4.51,20.32-6.85,30.46c-0.53,2.28-1.05,4.57-1.59,6.85
			c-0.31,1.35-0.63,2.69-0.95,4.03c-0.63,2.68-0.27,1.14-0.13,0.55c-1.12,4.71-2.26,9.42-3.43,14.12
			c-7.08,28.56-14.65,57.52-26.83,84.41c-4.27,9.43-9.21,18.59-15.35,26.95c0.3-0.4,0.6-0.81,0.9-1.21
			c-7.97,10.7-17.99,19.66-30.38,24.87c-13.2,5.55-28.02,7.65-42.27,6.54c-9.78-0.76-22.58-2.86-29.06-11.12
			c0.3,0.4,0.6,0.81,0.9,1.21c-0.53-0.76-0.88-1.58-1.36-2.36c-0.15-0.35-0.28-0.71-0.39-1.08c4.06,16.65,4.42,33.74,1.07,51.28
			c-0.61,4.17-0.73,5.26-0.37,3.25c-0.56,2.24-0.66,2.66-0.28,1.27c0.39-0.98,0.64-2.02,1.03-3.01c1.84-4.67,4.56-8.94,7.54-12.96
			c-0.3,0.4-0.6,0.81-0.9,1.21c13.39-17.55,33.37-31.26,54.89-36.48c17.63-4.28,34.37-0.78,50.64,6.57
			c22.01,9.95,42.71,22.67,64.55,33.02c27.39,12.97,55.33,25.66,84.24,34.85c25.37,8.06,52.13,13.13,78.74,9.24
			c22.07-3.22,43.27-11.49,62.61-22.44c40.39-22.87,75.63-58.7,94.78-101.26c12.92-28.73,15.81-59.84,15.82-91.05
			c0.01-29.41-1.9-59.77-15.15-86.56c-18.56-37.52-53.14-64.63-88.31-85.72c-18.61-11.16-38.02-20.94-57.7-30.05
			c-20.77-9.62-41.8-18.98-63.14-27.25c-55.36-21.46-114.03-33.78-173.27-37.25c-48.73-2.85-97.75,0.18-145.86,8.34
			c-32.78,5.56-65.19,13.47-96.8,23.8c-32.05,10.47-63.92,21.91-94.96,35.08c-37.16,15.77-73.99,34.33-105.54,59.8
			c-29.39,23.72-53.41,54.34-59.78,92.37c-3.57,21.33-3.7,43.44-2.79,64.97c0.67,15.76,2.31,31.3,6.14,46.62
			c5.29,21.17,15.07,41.1,27.36,59.06c24.03,35.11,58.85,66.68,100.17,79.37c18.35,5.64,38.18,6.95,56.55,0.69
			c21.24-7.24,38.06-23.17,51.5-40.66c14.83-19.3,26.47-40.75,37.51-62.37c12.52-24.51,23.67-49.55,32.97-75.46
			c19.34-53.87,31.76-110.07,41.33-166.42c4.89-28.78,9.01-57.67,12.87-86.6c2.14-16.03,4.2-32.07,6.25-48.12
			c0.93-7.31,1.87-14.62,2.8-21.93c0.45-3.53,0.9-7.06,1.36-10.58c0.14-1.09,0.28-2.17,0.42-3.26c0.3-2.35-0.14,1.05-0.16,1.24
			c0.28-2.18,0.56-4.35,0.85-6.53c3.89-29.8,7.98-59.58,12.72-89.25c2.41-15.06,4.98-30.1,7.78-45.09
			c1.03-5.51,2.07-11.02,3.19-16.51c0.31-1.54,0.64-3.07,0.98-4.6c0.15-0.68,0.19-1.71,0.52-2.32c-1.09,1.97-0.56,2.28-0.24,1
			c0.14-0.56,0.27-1.12,0.41-1.67c4.75-18.84,12.25-37.03,23.84-52.73c-0.3,0.4-0.6,0.81-0.9,1.21
			c15.73-20.82,38.14-34.36,63.33-40.65c10.7-2.67,21.97-4.22,33.01-3.26c6.91,0.6,15.42,2.15,19.86,8.08
			c-0.3-0.4-0.6-0.81-0.9-1.21c0.46,0.69,0.78,1.41,1.17,2.14c0.16,0.41,0.31,0.83,0.42,1.26c-4.6-17.71-4.81-35.96-0.62-54.76
			c-0.27,1.41-0.18,1.1,0.28-0.91c-0.15,0.58-0.31,1.16-0.49,1.74c-0.4,1.22-0.82,2.42-1.31,3.61c-2.28,5.55-5.53,10.65-9.08,15.47
			c0.3-0.4,0.6-0.81,0.9-1.21c-17.92,23.62-44.5,39.96-74.69,38.83c-29.71-1.12-58.49-13.74-86.38-22.85
			c-63.68-20.8-130.33-30.7-197.33-26.16c-55.41,3.75-120.79,17.47-155.94,64.74c-10.61,14.26-17.7,30.65-21.79,47.9
			c-3.51,14.78-4.7,29.99-5.14,45.14c-0.58,19.98-0.53,40.71,3.16,60.44c6.54,34.88,30.34,62.32,62.51,76.61
			c31.18,13.85,67.82,14.49,98.84-0.16c29.86-14.1,52.75-41.31,63-72.56c2.81-8.58,4.81-17.48,6.02-26.42
			c2.07-15.32,2.25-31.1,1.22-46.52c-0.18-2.29-0.35-4.59-0.53-6.88c-0.2-2.97-0.7-5.88-1.5-8.74c-0.3-0.4-0.6-0.81-0.9-1.21
			C271.05,248.6,270.48,250.14,270.52,251.98L270.52,251.98z"/>
	</g>
</g>
</svg>
